<?xml version="1.0" encoding="UTF-8"?><svg id="a" xmlns="http://www.w3.org/2000/svg" width="1967.13" height="620.17" viewBox="0 0 1967.13 620.17"><defs><style>.b{fill:#1435c9;}</style></defs><path class="b" d="M215.49,332.49c77.94-20.53,155.87-41.06,233.81-61.59,3.61-.95,7.43.41,9.62,3.42l57.73,76.5c2.29,3.14,2.3,7.4.04,10.56l-128.54,176.65c-1.7,2.37-4.44,3.78-7.35,3.78h-114.33c-7.45,0-11.7-8.51-7.22-14.46l79.61-105.9c.76-1.01-.18-2.42-1.41-2.09l-48.46,12.74c-1.29.34-2.44,1.09-3.27,2.13l-132.09,171.22c-6.23,8.08-15.86,12.81-26.06,12.81H11.67c-7.44,0-11.71-8.51-7.23-14.45,67.29-89.34,138.84-178.68,206.13-268.02,1.22-1.62,2.95-2.79,4.92-3.3Z"/><path class="b" d="M129.32,200.34l190.26-50.59c2.74-.73,5.13-2.42,6.74-4.76L421.26,6.08c3.72-5.45,11.18-6.8,16.59-3.02l75.49,52.9c5.16,3.61,6.58,10.62,3.24,15.96l-104.95,167.75c-1.48,2.37-3.77,4.15-6.43,5.01-80.79,26.03-130.94,31.4-211.88,57.54-2.3.74-4.35,2.19-5.82,4.12l-91.55,119.5c-3.97,5.22-11.43,6.22-16.64,2.23L7.25,372.38c-5.22-4-6.18-11.48-2.14-16.66,39.3-50.4,78.61-100.81,117.91-151.21,1.59-2.04,3.8-3.5,6.3-4.16Z"/><ellipse class="b" cx="258.44" cy="68.44" rx="66.96" ry="66.9"/><path class="b" d="M678,179.06c6.15,34.2,32.83,53.93,77.21,53.93,35.49,0,73.32-13.41,73.32-50.5,0-24.8-14.59-39.18-66.15-51.65-58.13-14.08-78.52-28.85-78.52-62.33,0-35.86,32.08-67.24,91.16-67.24,73.46,0,93.12,38.86,94.26,67.34h-25.79c-2.96-20.3-17.1-45.68-71.07-45.68-37.58,0-61.42,17.17-61.42,43.24,0,21.37,13.95,31.19,62.12,42.46,66.8,15.68,82.72,39.17,82.72,70.71,0,44.82-35.93,75.14-102.93,75.14-57.41,0-94.99-23.05-101.32-75.42h26.42Z"/><path class="b" d="M1040.41,199.28c0,16.77-.05,33.3.29,50.08h-24.7c-.68-4.78-1.25-18.24-1.31-31.65-8.58,21.21-24.7,36.43-62.69,36.43s-64.69-19.54-64.69-69.44v-106.94h25.78v101.91c0,26.87,10.76,51.51,44,51.51,40.08,0,57.54-23.26,57.54-76.37v-77.05h25.78v121.53Z"/><path class="b" d="M1238.22,196.94c-8.83,30.62-35.54,57.19-82.06,57.19-59.51,0-88.96-40.98-88.96-89.8s33.25-91.35,89.53-91.35,76.98,34.52,81.26,58.44h-25.78c-6.74-17.93-21.69-36.62-56.24-36.62-38.46,0-62.27,28.72-62.27,68.9,0,38.12,22.84,68.54,62.5,68.54,30.17,0,47.11-14.45,56.23-35.3h25.78Z"/><path class="b" d="M1277.78,169.37c1.94,36.52,26.23,62.99,63.69,62.99,28.67,0,44.98-12.33,55.08-30.76h25.78c-8.91,24.1-32.71,52.53-82.91,52.53-58.9,0-87.64-44.43-87.64-89.98,0-52.85,35.1-91.17,86.72-91.17,64.67,0,86.45,48.22,86.45,89.23,0,2.48,0,4.46-.05,7.17h-147.11ZM1397.62,149.48c-1.6-22.54-13.52-55.17-59.42-55.17-37.14,0-56.38,23.83-59.75,55.17h119.16Z"/><path class="b" d="M1463.79,197.64c6.67,22.66,25.84,35.61,59.19,35.61,35.87,0,49.06-12.79,49.06-30.21,0-15.74-8.94-26.94-55.26-32.29-58.83-7.03-70.85-27.17-70.85-48.66s17.09-49.11,70.63-49.11c59.05,0,74.46,31.29,76.04,50.68h-26.19c-2.67-11-9.96-30.02-51.61-30.02-35.09,0-42.74,15.42-42.74,26.31,0,14.45,8.84,23.07,50.25,28.42,62.98,8.11,75.86,26.99,75.86,52.94,0,30.69-23.42,52.82-76.71,52.82s-77.88-21.56-83.91-56.49h26.24Z"/><path class="b" d="M1639.17,197.64c6.67,22.66,25.84,35.61,59.19,35.61,35.87,0,49.06-12.79,49.06-30.21,0-15.74-8.94-26.94-55.26-32.29-58.83-7.03-70.85-27.17-70.85-48.66s17.09-49.11,70.63-49.11c59.05,0,74.46,31.29,76.04,50.68h-26.19c-2.67-11-9.96-30.02-51.61-30.02-35.09,0-42.74,15.42-42.74,26.31,0,14.45,8.84,23.07,50.25,28.42,62.98,8.11,75.86,26.99,75.86,52.94,0,30.69-23.42,52.82-76.71,52.82s-77.88-21.56-83.91-56.49h26.24Z"/><path class="b" d="M1967.13,163.52c0,46.16-29.15,90.61-90.18,90.61-56.32,0-88.66-42.91-88.66-90.32,0-49.82,34.51-90.84,90.19-90.84s88.65,44.36,88.65,90.55ZM1814.81,163.81c0,34.29,22.58,68.15,63.05,68.15s62.65-31.29,62.65-67.99-23.06-68.84-63.57-68.84-62.13,31.91-62.13,68.67Z"/><path class="b" d="M703.78,541.61c-10.59,0-19.65-3.72-27.19-11.17-7.53-7.44-11.25-16.5-11.17-27.18-.09-10.41,3.63-19.32,11.17-26.71,7.53-7.4,16.59-11.1,27.19-11.1,10.04,0,18.92,3.7,26.64,11.1,7.71,7.39,11.62,16.3,11.71,26.71-.09,7.12-1.94,13.58-5.55,19.38-3.61,5.8-8.29,10.41-14.04,13.83-5.76,3.43-12.01,5.14-18.77,5.14Z"/><path class="b" d="M799.02,509.26v103.99h-25.78v-204.6c0-14.33,0-28.71-.34-43.03h25.04c.68,5.36,1.08,17.01,1.08,31.75,10.18-19.09,31.02-36.52,67.83-36.52,46.8,0,79.8,38.15,79.8,87.71,0,54.98-37.59,93.44-84.73,93.44-37.66,0-53.28-16.82-62.9-32.73ZM920.03,449.38c0-32.07-18.57-65.87-60.36-65.87s-61.44,30.56-61.44,68.79,20.06,66.91,60.76,66.91,61.04-33.78,61.04-69.83Z"/><path class="b" d="M1119.03,496.41c0,15.06,1.02,36.77,1.65,40.81h-24.66c-1.37-6.9-1.99-20.86-2.05-26.78-8.98,18.68-28.3,31.56-65.87,31.56-48.96,0-66.45-29.62-66.45-54.84,0-43.59,40.02-55.69,88.55-55.69h43.55v-10.21c0-20.18-8.66-39.58-48.53-39.58-35.63,0-44.14,16.15-47.9,33.61h-25.78c2.22-23.21,17.57-54.44,73.8-54.44s73.68,29.16,73.68,57.41v78.16ZM1093.76,451c-5.76-.05-17.18-.05-42.82-.05-42.83,0-63.55,9.17-63.55,34.86,0,18.83,13.68,34.75,44.71,34.75,50.21,0,61.66-30.45,61.66-60.69v-8.87Z"/><path class="b" d="M1157.75,365.61c38.45,87.03,60.36,137.18,66.01,152.33h.45c6.44-16.88,25.13-67.23,60.71-152.33h27.09l-70.15,167.58c-30.65,72.9-42.38,84.83-80.97,84.83-5.9,0-15.24-.68-21.15-1.76v-23.81c6.24.97,15.32,1.54,19.4,1.54,23.07,0,33-10.32,50.59-48.58l-80.41-179.81h28.43Z"/></svg>