<?xml version="1.0" encoding="UTF-8"?><svg id="a" xmlns="http://www.w3.org/2000/svg" width="1967.13" height="620.17" viewBox="0 0 1967.13 620.17"><defs><style>.b{fill:#fff;}</style></defs><path class="b" d="M214.95,334.77c77.94-20.53,155.87-41.06,233.81-61.59,3.61-.95,7.43.41,9.62,3.42l57.73,76.5c2.29,3.14,2.3,7.4.04,10.56l-128.54,176.65c-1.7,2.37-4.44,3.78-7.35,3.78h-114.33c-7.45,0-11.7-8.51-7.22-14.46l79.61-105.9c.76-1.01-.18-2.42-1.41-2.09l-48.46,12.74c-1.29.34-2.44,1.09-3.27,2.13l-132.09,171.22c-6.23,8.08-15.86,12.81-26.06,12.81H11.13c-7.44,0-11.71-8.51-7.23-14.45,67.29-89.34,138.84-178.68,206.13-268.02,1.22-1.62,2.95-2.79,4.92-3.3Z"/><path class="b" d="M128.78,202.62l190.26-50.59c2.74-.73,5.13-2.42,6.74-4.76L420.72,8.36c3.72-5.45,11.18-6.8,16.59-3.02l75.49,52.9c5.16,3.61,6.58,10.62,3.24,15.96l-104.95,167.75c-1.48,2.37-3.77,4.15-6.43,5.01-80.79,26.03-130.94,31.4-211.88,57.54-2.3.74-4.35,2.19-5.82,4.12l-91.55,119.5c-3.97,5.22-11.43,6.22-16.64,2.23L6.71,374.66c-5.22-4-6.18-11.48-2.14-16.66,39.3-50.4,78.61-100.81,117.91-151.21,1.59-2.04,3.8-3.5,6.3-4.16Z"/><ellipse class="b" cx="257.89" cy="70.72" rx="66.96" ry="66.9"/><path class="b" d="M677.47,181.41c6.16,34.22,32.84,53.95,77.24,53.95,35.5,0,73.35-13.42,73.35-50.52,0-24.81-14.59-39.19-66.17-51.67-58.16-14.09-78.55-28.86-78.55-62.36,0-35.88,32.1-67.26,91.19-67.26,73.49,0,93.16,38.87,94.29,67.37h-25.8c-2.96-20.31-17.1-45.7-71.1-45.7-37.59,0-61.45,17.17-61.45,43.26,0,21.38,13.95,31.2,62.15,42.48,66.83,15.69,82.75,39.18,82.75,70.74,0,44.83-35.94,75.17-102.97,75.17-57.44,0-95.03-23.06-101.36-75.45h26.43Z"/><path class="b" d="M1040.03,201.65c0,16.78-.05,33.32.29,50.1h-24.71c-.68-4.78-1.25-18.25-1.31-31.66-8.59,21.22-24.71,36.44-62.71,36.44s-64.72-19.55-64.72-69.47v-106.98h25.79v101.95c0,26.88,10.77,51.53,44.02,51.53,40.1,0,57.57-23.27,57.57-76.4v-77.09h25.79v121.58Z"/><path class="b" d="M1237.92,199.31c-8.83,30.63-35.55,57.21-82.09,57.21-59.54,0-89-41-89-89.84s33.27-91.39,89.57-91.39,77.01,34.54,81.3,58.47h-25.79c-6.74-17.93-21.7-36.63-56.26-36.63-38.48,0-62.29,28.73-62.29,68.93,0,38.13,22.85,68.57,62.52,68.57,30.18,0,47.13-14.45,56.25-35.32h25.79Z"/><path class="b" d="M1277.49,171.73c1.94,36.54,26.25,63.02,63.71,63.02,28.68,0,45-12.34,55.1-30.78h25.79c-8.91,24.11-32.72,52.55-82.95,52.55-58.93,0-87.67-44.45-87.67-90.02,0-52.87,35.11-91.21,86.76-91.21,64.7,0,86.49,48.24,86.49,89.26,0,2.48,0,4.46-.05,7.17h-147.17ZM1397.39,151.82c-1.6-22.54-13.52-55.19-59.44-55.19-37.16,0-56.4,23.84-59.77,55.19h119.21Z"/><path class="b" d="M1463.58,200c6.67,22.67,25.85,35.62,59.21,35.62,35.88,0,49.08-12.79,49.08-30.22,0-15.75-8.94-26.95-55.28-32.3-58.86-7.03-70.88-27.18-70.88-48.68s17.09-49.13,70.66-49.13c59.07,0,74.49,31.3,76.07,50.7h-26.2c-2.68-11-9.96-30.03-51.63-30.03-35.11,0-42.76,15.42-42.76,26.33,0,14.45,8.84,23.08,50.27,28.43,63,8.11,75.89,27,75.89,52.96,0,30.7-23.43,52.84-76.74,52.84s-77.91-21.57-83.94-56.51h26.25Z"/><path class="b" d="M1639.04,200c6.67,22.67,25.85,35.62,59.21,35.62,35.88,0,49.08-12.79,49.08-30.22,0-15.75-8.94-26.95-55.28-32.3-58.86-7.03-70.88-27.18-70.88-48.68s17.09-49.13,70.66-49.13c59.07,0,74.49,31.3,76.07,50.7h-26.2c-2.68-11-9.96-30.03-51.63-30.03-35.11,0-42.76,15.42-42.76,26.33,0,14.45,8.84,23.08,50.27,28.43,63,8.11,75.89,27,75.89,52.96,0,30.7-23.43,52.84-76.74,52.84s-77.91-21.57-83.94-56.51h26.25Z"/><path class="b" d="M1967.13,165.88c0,46.17-29.16,90.64-90.22,90.64-56.34,0-88.7-42.93-88.7-90.36,0-49.84,34.53-90.87,90.23-90.87s88.69,44.38,88.69,90.59ZM1814.74,166.16c0,34.3,22.59,68.18,63.07,68.18s62.68-31.3,62.68-68.02-23.07-68.87-63.59-68.87-62.16,31.93-62.16,68.7Z"/><path class="b" d="M703.26,544.11c-10.6,0-19.66-3.72-27.2-11.17-7.54-7.44-11.26-16.51-11.17-27.19-.09-10.42,3.63-19.33,11.17-26.72,7.54-7.4,16.6-11.1,27.2-11.1,10.05,0,18.93,3.7,26.65,11.1,7.72,7.4,11.62,16.3,11.72,26.72-.09,7.12-1.94,13.58-5.55,19.38-3.61,5.81-8.29,10.42-14.04,13.84-5.76,3.43-12.01,5.14-18.77,5.14Z"/><path class="b" d="M798.54,511.76v104.03h-25.79v-204.69c0-14.33,0-28.72-.34-43.05h25.05c.68,5.36,1.08,17.02,1.08,31.76,10.18-19.1,31.03-36.54,67.86-36.54,46.82,0,79.84,38.17,79.84,87.75,0,55-37.6,93.48-84.77,93.48-37.67,0-53.3-16.83-62.93-32.74ZM919.6,451.85c0-32.08-18.58-65.9-60.38-65.9s-61.46,30.57-61.46,68.82,20.06,66.94,60.78,66.94,61.07-33.79,61.07-69.86Z"/><path class="b" d="M1118.68,498.9c0,15.07,1.03,36.79,1.65,40.82h-24.67c-1.37-6.9-2-20.87-2.05-26.79-8.98,18.69-28.31,31.57-65.89,31.57-48.98,0-66.48-29.63-66.48-54.86,0-43.61,40.04-55.72,88.58-55.72h43.57v-10.22c0-20.19-8.67-39.6-48.55-39.6-35.65,0-44.15,16.16-47.92,33.63h-25.79c2.23-23.22,17.58-54.46,73.83-54.46s73.71,29.17,73.71,57.43v78.2ZM1093.4,453.47c-5.76-.05-17.19-.05-42.83-.05-42.84,0-63.57,9.17-63.57,34.87,0,18.83,13.69,34.76,44.72,34.76,50.23,0,61.68-30.46,61.68-60.71v-8.87Z"/><path class="b" d="M1157.41,368.05c38.46,87.06,60.38,137.24,66.03,152.39h.45c6.44-16.89,25.14-67.26,60.74-152.39h27.1l-70.18,167.65c-30.66,72.93-42.4,84.86-81,84.86-5.9,0-15.25-.68-21.16-1.76v-23.82c6.24.97,15.33,1.55,19.41,1.55,23.08,0,33.02-10.32,50.61-48.6l-80.44-179.88h28.44Z"/></svg>