<?xml version="1.0" encoding="UTF-8"?><svg id="a" xmlns="http://www.w3.org/2000/svg" width="308.63" height="369.42" viewBox="0 0 308.63 369.42"><defs><style>.b{fill:#0a1929;}</style></defs><path class="b" d="M127.38,198.41c46.64-12.28,93.28-24.57,139.91-36.85,2.16-.57,4.44.25,5.76,2.05l34.55,45.78c1.37,1.88,1.38,4.43.02,6.32l-76.92,105.71c-1.02,1.42-2.65,2.26-4.4,2.26h-68.41c-4.46,0-7-5.09-4.32-8.65l47.64-63.37c.46-.61-.11-1.45-.84-1.25l-29,7.62c-.77.2-1.46.65-1.96,1.28l-79.05,102.46c-3.73,4.83-9.49,7.66-15.59,7.66H5.42c-4.45,0-7.01-5.09-4.33-8.65,40.27-53.46,83.08-106.92,123.35-160.38.73-.97,1.77-1.67,2.94-1.98Z"/><path class="b" d="M75.82,119.33l113.85-30.27c1.64-.44,3.07-1.45,4.03-2.85L250.52,3.09c2.23-3.26,6.69-4.07,9.92-1.8l45.17,31.65c3.09,2.16,3.94,6.36,1.94,9.55l-62.8,100.38c-.89,1.42-2.26,2.48-3.85,3-48.35,15.58-78.35,18.79-126.79,34.43-1.38.45-2.6,1.31-3.48,2.46l-54.79,71.51c-2.38,3.12-6.84,3.72-9.96,1.33L2.78,222.28c-3.12-2.39-3.7-6.87-1.28-9.97,23.52-30.16,47.04-60.32,70.56-90.49.95-1.22,2.27-2.09,3.77-2.49Z"/><ellipse class="b" cx="153.09" cy="40.4" rx="40.07" ry="40.03"/></svg>